
      <svg data-logo="logo" xmlns="http://www.w3.org/2000/svg" viewBox="0 0 355 42">
        <g id="logogram" transform="translate(0, 1) rotate(0)"><path d="M24 0H16V12.0632C15.9663 14.2434 14.1885 16 12.0005 16H0V24H8.68629C10.808 24 12.8429 23.1571 14.3431 21.6569L21.6569 14.3431C23.1571 12.8429 24 10.808 24 8.68629V0Z" fill="url(#paint0_linear_7697_8782)"/><path d="M16 40H24V27.9368C24.0337 25.7566 25.8115 24 27.9995 24H40V16H31.3137C29.192 16 27.1571 16.8429 25.6569 18.3431L18.3431 25.6569C16.8429 27.1571 16 29.192 16 31.3137V40Z" fill="url(#paint1_linear_7697_8782)"/></g>
        <g id="logotype" transform="translate(46, 7.5)"><path fill="#111111" d="M12.60 27L6.84 27L15.54 1.54L22.37 1.54L31.29 27L25.50 27L21.42 14.71Q20.68 12.34 19.92 9.51Q19.16 6.68 18.32 3.33L18.32 3.33L19.45 3.33Q18.65 6.70 17.94 9.54Q17.23 12.39 16.53 14.71L16.53 14.71L12.60 27ZM25.86 21.09L12.27 21.09L12.27 17.00L25.86 17.00L25.86 21.09ZM32.16 1.54L37.37 1.54L37.37 27L32.16 27L32.16 1.54ZM45.73 1.54L50.94 1.54L50.94 27L45.73 27L45.73 1.54ZM58.29 15.94L58.29 15.94L58.29 27L53.16 27L53.16 7.89L58.00 7.89L58.08 12.66L57.77 12.66Q58.53 10.27 60.06 8.96Q61.59 7.65 64.01 7.65L64.01 7.65Q65.99 7.65 67.46 8.52Q68.93 9.38 69.75 11.00Q70.57 12.61 70.57 14.85L70.57 14.85L70.57 27L65.45 27L65.45 15.74Q65.45 13.96 64.53 12.95Q63.62 11.94 62.00 11.94L62.00 11.94Q60.92 11.94 60.07 12.41Q59.23 12.88 58.76 13.77Q58.29 14.66 58.29 15.94ZM70.83 7.89L82.16 7.89L82.16 11.81L70.83 11.81L70.83 7.89ZM73.46 21.86L73.46 3.35L78.59 3.35L78.59 21.41Q78.59 22.32 78.99 22.75Q79.39 23.19 80.33 23.19L80.33 23.19Q80.62 23.19 81.15 23.11Q81.68 23.04 81.95 22.97L81.95 22.97L82.69 26.81Q81.83 27.07 80.99 27.17Q80.14 27.27 79.37 27.27L79.37 27.27Q76.50 27.27 74.98 25.87Q73.46 24.47 73.46 21.86L73.46 21.86ZM91.85 27.38L91.85 27.38Q88.92 27.38 86.81 26.18Q84.69 24.98 83.55 22.78Q82.41 20.57 82.41 17.55L82.41 17.55Q82.41 14.59 83.54 12.37Q84.67 10.15 86.74 8.90Q88.81 7.65 91.59 7.65L91.59 7.65Q93.47 7.65 95.09 8.25Q96.72 8.85 97.95 10.06Q99.18 11.26 99.87 13.07Q100.56 14.88 100.56 17.34L100.56 17.34L100.56 18.78L84.52 18.78L84.52 15.57L98.05 15.57L95.66 16.42Q95.66 14.93 95.21 13.83Q94.75 12.73 93.86 12.12Q92.96 11.52 91.62 11.52L91.62 11.52Q90.31 11.52 89.38 12.13Q88.45 12.75 87.97 13.80Q87.49 14.85 87.49 16.20L87.49 16.20L87.49 18.47Q87.49 20.13 88.04 21.26Q88.60 22.39 89.60 22.95Q90.60 23.51 91.93 23.51L91.93 23.51Q92.84 23.51 93.57 23.26Q94.31 23.00 94.83 22.50Q95.35 21.99 95.62 21.26L95.62 21.26L100.27 22.13Q99.81 23.70 98.67 24.89Q97.52 26.08 95.80 26.73Q94.09 27.38 91.85 27.38ZM106.92 27L101.79 27L101.79 7.89L106.75 7.89L106.75 11.23L106.95 11.23Q107.48 9.45 108.72 8.54Q109.96 7.64 111.57 7.64L111.57 7.64Q111.96 7.64 112.41 7.68Q112.87 7.72 113.22 7.81L113.22 7.81L113.22 12.39Q112.88 12.27 112.23 12.20Q111.58 12.13 111.00 12.13L111.00 12.13Q109.84 12.13 108.90 12.64Q107.96 13.14 107.44 14.04Q106.92 14.93 106.92 16.13L106.92 16.13L106.92 27ZM124.98 27L119.15 27L112.11 7.89L117.56 7.89L120.78 17.81Q121.36 19.67 121.79 21.57Q122.23 23.46 122.69 25.50L122.69 25.50L121.60 25.50Q122.04 23.46 122.47 21.57Q122.90 19.67 123.48 17.81L123.48 17.81L126.65 7.89L132.04 7.89L124.98 27ZM137.61 27L132.48 27L132.48 7.89L137.61 7.89L137.61 27ZM135.04 5.40L135.04 5.40Q133.88 5.40 133.06 4.63Q132.24 3.86 132.24 2.77L132.24 2.77Q132.24 1.67 133.06 0.90Q133.88 0.13 135.04 0.13L135.04 0.13Q136.21 0.13 137.04 0.90Q137.86 1.66 137.86 2.77L137.86 2.77Q137.86 3.86 137.04 4.63Q136.21 5.40 135.04 5.40ZM148.32 27.38L148.32 27.38Q145.40 27.38 143.28 26.18Q141.16 24.98 140.02 22.78Q138.89 20.57 138.89 17.55L138.89 17.55Q138.89 14.59 140.02 12.37Q141.14 10.15 143.21 8.90Q145.28 7.65 148.06 7.65L148.06 7.65Q149.94 7.65 151.57 8.25Q153.19 8.85 154.42 10.06Q155.65 11.26 156.34 13.07Q157.04 14.88 157.04 17.34L157.04 17.34L157.04 18.78L140.99 18.78L140.99 15.57L154.52 15.57L152.13 16.42Q152.13 14.93 151.68 13.83Q151.23 12.73 150.33 12.12Q149.43 11.52 148.10 11.52L148.10 11.52Q146.78 11.52 145.85 12.13Q144.92 12.75 144.44 13.80Q143.96 14.85 143.96 16.20L143.96 16.20L143.96 18.47Q143.96 20.13 144.52 21.26Q145.07 22.39 146.07 22.95Q147.07 23.51 148.41 23.51L148.41 23.51Q149.31 23.51 150.05 23.26Q150.78 23.00 151.30 22.50Q151.82 21.99 152.10 21.26L152.10 21.26L156.75 22.13Q156.28 23.70 155.14 24.89Q153.99 26.08 152.28 26.73Q150.56 27.38 148.32 27.38ZM167.46 27L162.25 27L156.61 7.89L161.99 7.89L163.65 14.95Q164.08 16.85 164.57 19.08Q165.07 21.31 165.48 24.01L165.48 24.01L164.90 24.01Q165.34 21.38 165.87 19.14Q166.40 16.90 166.86 14.95L166.86 14.95L168.60 7.89L173.32 7.89L175.01 14.95Q175.46 16.88 175.99 19.11Q176.52 21.34 176.98 24.01L176.98 24.01L176.40 24.01Q176.81 21.36 177.28 19.13Q177.75 16.90 178.19 14.95L178.19 14.95L179.85 7.89L185.30 7.89L179.63 27L174.41 27L172.30 19.63Q171.99 18.52 171.68 17.18Q171.37 15.84 171.08 14.45Q170.79 13.05 170.48 11.84L170.48 11.84L171.39 11.84Q171.10 13.05 170.80 14.45Q170.50 15.84 170.19 17.19Q169.89 18.54 169.58 19.63L169.58 19.63L167.46 27ZM197.05 27L191.88 27L191.88 1.54L199.87 1.54L204.01 13.23Q204.27 14.05 204.60 15.34Q204.93 16.64 205.28 18.15Q205.62 19.65 205.92 21.07Q206.22 22.49 206.40 23.53L206.40 23.53L205.39 23.53Q205.58 22.51 205.88 21.10Q206.18 19.69 206.52 18.18Q206.86 16.68 207.20 15.36Q207.53 14.05 207.79 13.23L207.79 13.23L211.85 1.54L219.89 1.54L219.89 27L214.64 27L214.64 14.99Q214.64 14.17 214.67 12.92Q214.71 11.67 214.74 10.23Q214.78 8.78 214.81 7.32Q214.85 5.86 214.86 4.56L214.86 4.56L215.19 4.56Q214.86 5.98 214.47 7.49Q214.08 9.00 213.67 10.42Q213.27 11.84 212.91 13.03Q212.56 14.22 212.30 14.99L212.30 14.99L208.08 27L203.69 27L199.40 14.99Q199.14 14.22 198.78 13.05Q198.42 11.88 198.02 10.46Q197.62 9.04 197.21 7.53Q196.80 6.01 196.42 4.56L196.42 4.56L196.83 4.56Q196.85 5.79 196.88 7.24Q196.92 8.70 196.96 10.16Q197.00 11.62 197.03 12.88Q197.05 14.13 197.05 14.99L197.05 14.99L197.05 27ZM230.63 27.38L230.63 27.38Q227.76 27.38 225.66 26.14Q223.56 24.90 222.42 22.68Q221.29 20.47 221.29 17.53L221.29 17.53Q221.29 14.56 222.42 12.35Q223.56 10.13 225.66 8.89Q227.76 7.65 230.63 7.65L230.63 7.65Q233.52 7.65 235.62 8.89Q237.71 10.13 238.85 12.35Q239.98 14.56 239.98 17.53L239.98 17.53Q239.98 20.47 238.85 22.68Q237.71 24.90 235.62 26.14Q233.52 27.38 230.63 27.38ZM230.63 23.34L230.63 23.34Q232.00 23.34 232.92 22.58Q233.85 21.82 234.31 20.50Q234.77 19.17 234.77 17.52L234.77 17.52Q234.77 15.82 234.31 14.51Q233.85 13.19 232.92 12.44Q232.00 11.69 230.63 11.69L230.63 11.69Q229.27 11.69 228.35 12.44Q227.44 13.19 226.98 14.51Q226.52 15.82 226.52 17.52L226.52 17.52Q226.52 19.17 226.98 20.50Q227.44 21.82 228.35 22.58Q229.27 23.34 230.63 23.34ZM249.82 27.38L249.82 27.38Q246.94 27.38 244.84 26.14Q242.75 24.90 241.61 22.68Q240.48 20.47 240.48 17.53L240.48 17.53Q240.48 14.56 241.61 12.35Q242.75 10.13 244.84 8.89Q246.94 7.65 249.82 7.65L249.82 7.65Q251.52 7.65 252.95 8.10Q254.39 8.54 255.50 9.36Q256.61 10.18 257.33 11.36Q258.04 12.54 258.32 14.01L258.32 14.01L253.55 14.90Q253.40 14.15 253.07 13.56Q252.75 12.97 252.29 12.55Q251.82 12.13 251.22 11.91Q250.61 11.69 249.88 11.69L249.88 11.69Q248.51 11.69 247.58 12.42Q246.65 13.16 246.18 14.47Q245.71 15.79 245.71 17.52L245.71 17.52Q245.71 19.22 246.18 20.53Q246.65 21.84 247.58 22.59Q248.51 23.34 249.88 23.34L249.88 23.34Q250.61 23.34 251.23 23.11Q251.84 22.88 252.32 22.45Q252.80 22.01 253.12 21.39Q253.45 20.78 253.58 20.01L253.58 20.01L258.35 20.88Q258.08 22.40 257.36 23.59Q256.64 24.78 255.53 25.63Q254.42 26.49 252.98 26.93Q251.53 27.38 249.82 27.38ZM267.73 17.48L264.25 21.41L264.25 15.24L265.02 15.24L271.27 7.89L277.20 7.89L268.95 17.48L267.73 17.48ZM264.72 27L259.60 27L259.60 1.54L264.72 1.54L264.72 27ZM277.56 27L271.53 27L265.78 18.63L269.22 14.99L277.56 27ZM286.26 27.38L286.26 27.38Q283.33 27.38 281.21 26.18Q279.10 24.98 277.96 22.78Q276.82 20.57 276.82 17.55L276.82 17.55Q276.82 14.59 277.95 12.37Q279.08 10.15 281.15 8.90Q283.21 7.65 286.00 7.65L286.00 7.65Q287.88 7.65 289.50 8.25Q291.13 8.85 292.36 10.06Q293.59 11.26 294.28 13.07Q294.97 14.88 294.97 17.34L294.97 17.34L294.97 18.78L278.92 18.78L278.92 15.57L292.46 15.57L290.07 16.42Q290.07 14.93 289.61 13.83Q289.16 12.73 288.26 12.12Q287.37 11.52 286.03 11.52L286.03 11.52Q284.72 11.52 283.79 12.13Q282.85 12.75 282.38 13.80Q281.90 14.85 281.90 16.20L281.90 16.20L281.90 18.47Q281.90 20.13 282.45 21.26Q283.01 22.39 284.01 22.95Q285.01 23.51 286.34 23.51L286.34 23.51Q287.25 23.51 287.98 23.26Q288.72 23.00 289.24 22.50Q289.76 21.99 290.03 21.26L290.03 21.26L294.68 22.13Q294.22 23.70 293.07 24.89Q291.93 26.08 290.21 26.73Q288.49 27.38 286.26 27.38ZM301.33 27L296.20 27L296.20 7.89L301.16 7.89L301.16 11.23L301.36 11.23Q301.89 9.45 303.13 8.54Q304.37 7.64 305.98 7.64L305.98 7.64Q306.37 7.64 306.82 7.68Q307.27 7.72 307.63 7.81L307.63 7.81L307.63 12.39Q307.29 12.27 306.64 12.20Q305.99 12.13 305.41 12.13L305.41 12.13Q304.25 12.13 303.31 12.64Q302.37 13.14 301.85 14.04Q301.33 14.93 301.33 16.13L301.33 16.13L301.33 27Z"/></g>
        <defs xmlns="http://www.w3.org/2000/svg">
<linearGradient id="paint0_linear_7697_8782" x1="20" y1="-0.997096" x2="20" y2="33.7931" gradientUnits="userSpaceOnUse">
<stop stop-color="#75D8FC"/>
<stop offset="1" stop-color="#0072E5"/>
</linearGradient>
<linearGradient id="paint1_linear_7697_8782" x1="20" y1="-0.997096" x2="20" y2="33.7931" gradientUnits="userSpaceOnUse">
<stop stop-color="#75D8FC"/>
<stop offset="1" stop-color="#0072E5"/>
</linearGradient>
</defs>
      </svg>
    